<svg height="800" width="800" xmlns="http://www.w3.org/2000/svg" viewBox="0 0 512 512" xml:space="preserve"><path style="fill:#43575b" d="M382.724 35.639v440.697c0 19.647-16.062 35.639-35.639 35.639H35.639q-2.585 0-5.17-.414c-.827-.138-1.654-.276-2.482-.483a16.5 16.5 0 0 1-2.482-.62c-.827-.276-1.654-.552-2.413-.827a19 19 0 0 1-1.792-.69 46 46 0 0 1-2.619-1.31c-1.861-1.034-3.723-2.205-5.377-3.584-.138-.138-.276-.207-.414-.345a36.6 36.6 0 0 1-4.619-4.619c-.759-.896-1.517-1.861-2.137-2.826-.69-.965-1.241-1.93-1.792-2.964-.483-.827-.896-1.723-1.31-2.62-.276-.552-.483-1.172-.69-1.792a30.6 30.6 0 0 1-1.447-4.895 11.3 11.3 0 0 1-.414-2.206c-.138-.551-.207-1.172-.276-1.792A32 32 0 0 1 0 476.336V35.639C0 16.061 16.062 0 35.639 0h311.445q4.24 0 8.272 1.034c12.96 3.102 23.231 13.373 26.333 26.333a33 33 0 0 1 1.035 8.272"/><path style="opacity:.1;fill:#040000" d="M382.724 466.203v10.133c0 19.647-16.062 35.639-35.639 35.639H35.639q-2.585 0-5.17-.414c-.827-.138-1.654-.276-2.482-.483a16.5 16.5 0 0 1-2.482-.62c-.827-.276-1.654-.552-2.413-.827a19 19 0 0 1-1.792-.69 46 46 0 0 1-2.619-1.31c-1.861-1.034-3.723-2.205-5.377-3.584-.138-.138-.276-.207-.414-.345a36.6 36.6 0 0 1-4.619-4.619c-.759-.896-1.517-1.861-2.137-2.826-.69-.965-1.241-1.93-1.792-2.964-.483-.827-.896-1.723-1.31-2.62-.276-.552-.483-1.172-.69-1.792a20 20 0 0 1-1.447-4.895 11.3 11.3 0 0 1-.414-2.206c-.138-.551-.207-1.172-.276-1.792A32 32 0 0 1 0 476.336v-10.133c0 19.646 16.062 35.639 35.639 35.639h311.445c19.578 0 35.64-15.993 35.64-35.639m-191.361-69.565c-40.731 0-79.682-14.581-110.319-41.179a27.67 27.67 0 0 1-13.696 3.615c-15.315 0-27.772-12.454-27.772-27.769 0-6.557 2.37-12.898 6.527-17.86-15.143-25.77-23.121-55.1-23.121-85.185 0-29.762 7.819-58.823 22.663-84.397a27.6 27.6 0 0 1-6.069-17.314c0-15.315 12.457-27.769 27.772-27.769 4.457 0 8.829 1.084 12.747 3.11 30.775-27.136 70.072-42.014 111.268-42.014 41.451 0 80.921 15.032 111.773 42.458a27.65 27.65 0 0 1 13.578-3.554c15.315 0 27.769 12.454 27.769 27.769 0 6.752-2.491 13.235-6.86 18.25 14.487 25.352 22.121 54.084 22.121 83.462 0 29.715-7.789 58.715-22.585 84.263a27.7 27.7 0 0 1 7.324 18.782c0 15.315-12.454 27.769-27.769 27.769-5.197 0-10.179-1.42-14.5-4.079-30.712 26.893-69.844 41.642-110.851 41.642"/><path style="fill:#65747c" d="M320.515 309.077c14.69-23.426 23.193-51.127 23.193-80.818 0-29.32-8.29-56.7-22.644-79.939 4.99-3.576 8.251-9.42 8.251-16.014 0-10.86-8.835-19.696-19.695-19.696a19.62 19.62 0 0 0-13.324 5.206C268.974 91.85 232.03 75.913 191.362 75.913c-40.367 0-77.061 15.707-104.321 41.333a19.6 19.6 0 0 0-12.674-4.636c-10.86 0-19.695 8.835-19.695 19.696 0 6.209 2.891 11.752 7.393 15.365-14.601 23.377-23.049 50.994-23.049 80.588 0 29.951 8.649 57.879 23.578 81.435-4.806 3.595-7.922 9.33-7.922 15.78 0 10.86 8.835 19.695 19.695 19.695 5.157 0 9.855-1.995 13.37-5.25 27.187 25.243 63.6 40.686 103.625 40.686 40.341 0 77.013-15.686 104.267-41.284 3.572 3.608 8.523 5.848 13.99 5.848 10.86 0 19.695-8.835 19.695-19.695.001-6.834-3.499-12.864-8.799-16.397"/><path style="fill:#e2e2c5" d="M191.362 330.103c-56.157 0-101.844-45.687-101.844-101.844s45.687-101.844 101.844-101.844 101.844 45.687 101.844 101.844-45.687 101.844-101.844 101.844"/><path style="fill:#65747c" d="M191.362 271.185c-23.669 0-42.926-19.257-42.926-42.926s19.257-42.926 42.926-42.926 42.926 19.257 42.926 42.926-19.257 42.926-42.926 42.926"/><path style="fill:#9a9978" d="M191.362 262.768c-19.028 0-34.509-15.481-34.509-34.509 0-19.029 15.481-34.509 34.509-34.509s34.509 15.481 34.509 34.509-15.481 34.509-34.509 34.509"/><path style="fill:#cbcbcb" d="M74.367 144.78c-6.878 0-12.474-5.596-12.474-12.474s5.596-12.474 12.474-12.474 12.474 5.596 12.474 12.474-5.596 12.474-12.474 12.474m235.252 0c-6.878 0-12.474-5.596-12.474-12.474s5.596-12.474 12.474-12.474 12.474 5.596 12.474 12.474-5.596 12.474-12.474 12.474M74.367 337.948c-6.878 0-12.474-5.596-12.474-12.474S67.489 313 74.367 313s12.474 5.596 12.474 12.474-5.596 12.474-12.474 12.474m235.252 0c-6.878 0-12.474-5.596-12.474-12.474S302.741 313 309.619 313s12.474 5.596 12.474 12.474-5.596 12.474-12.474 12.474"/><path style="fill:#fdf3dc" d="M74.367 137.295a4.995 4.995 0 0 1-4.989-4.99 4.995 4.995 0 0 1 4.989-4.99 4.996 4.996 0 0 1 4.99 4.99 4.996 4.996 0 0 1-4.99 4.99m235.252 0a4.996 4.996 0 0 1-4.99-4.99 4.996 4.996 0 0 1 4.99-4.99 4.996 4.996 0 0 1 4.99 4.99 4.995 4.995 0 0 1-4.99 4.99M74.367 330.463a4.995 4.995 0 0 1-4.989-4.99 4.995 4.995 0 0 1 4.989-4.99 4.996 4.996 0 0 1 4.99 4.99 4.996 4.996 0 0 1-4.99 4.99m235.252 0a4.996 4.996 0 0 1-4.99-4.99 4.996 4.996 0 0 1 4.99-4.99 4.996 4.996 0 0 1 4.99 4.99 4.995 4.995 0 0 1-4.99 4.99"/><g style="opacity:.1"><path style="fill:#040000" d="M134.767 430.081c0-1.172-.069-2.206-.207-3.171s-.345-1.792-.69-2.62a7.3 7.3 0 0 0-1.241-2.275q-1.862-2.481-4.343-3.722c-1.654-.758-3.722-1.172-6.066-1.172h-12.477v33.364h12.477c2.344 0 4.412-.345 6.066-1.172 1.654-.758 3.102-1.999 4.343-3.654q.828-1.137 1.241-2.275c.345-.827.552-1.723.69-2.62.138-.965.207-1.999.207-3.171.069-1.172.069-2.413.069-3.791 0-1.377 0-2.618-.069-3.721m-6.756 7.17c0 .896-.069 1.723-.138 2.413a21 21 0 0 1-.414 1.723c-.207.414-.483.896-.758 1.241-1.172 1.379-2.826 2.068-5.032 2.068h-5.17v-21.715h5.17c2.206 0 3.86.689 5.032 2.068.276.345.552.758.758 1.241.138.483.276 1.034.414 1.723.069.621.138 1.448.138 2.413.069.965.069 2.068.069 3.378s0 2.481-.069 3.447m37.707-14.27v-5.859H142.97v33.364h22.748v-5.79h-16.061v-8.135h13.649v-5.79h-13.649v-7.79zm32.468-5.859-9.03 18.061-9.03-18.061h-6.618v33.364h6.756v-19.44l6.617 12.684h4.55l6.617-12.684v19.44h6.756v-33.364zm40.189 12.408a27 27 0 0 0-.414-3.585c-.276-1.034-.621-2.068-1.034-2.964-.483-.896-1.172-1.792-2.068-2.62-1.172-1.103-2.482-1.999-3.929-2.551-1.517-.621-3.24-.965-5.239-.965s-3.791.344-5.308.965c-1.516.552-2.826 1.448-3.998 2.551-.827.827-1.517 1.723-1.999 2.62s-.827 1.93-1.034 2.964a19 19 0 0 0-.345 3.585c-.069 1.241-.069 2.689-.069 4.274s0 3.033.069 4.343c0 1.241.138 2.412.345 3.516a10 10 0 0 0 1.034 2.964c.483.896 1.172 1.792 1.999 2.62 1.172 1.172 2.481 1.999 3.998 2.62 1.517.62 3.309.896 5.308.896s3.722-.276 5.239-.896c1.448-.621 2.758-1.448 3.929-2.62.896-.827 1.585-1.723 2.068-2.62.414-.896.758-1.861 1.034-2.964q.31-1.654.414-3.516c0-1.31.069-2.758.069-4.343s-.069-3.033-.069-4.274m-6.756 8.272a19 19 0 0 1-.345 2.551c-.138.689-.275 1.241-.482 1.654a4.6 4.6 0 0 1-.827 1.172 7.1 7.1 0 0 1-1.792 1.31c-.758.345-1.585.483-2.481.483-.965 0-1.792-.138-2.551-.483-.689-.345-1.31-.827-1.861-1.31a6.8 6.8 0 0 1-.758-1.172 6.6 6.6 0 0 1-.552-1.654c-.138-.69-.207-1.517-.276-2.551 0-1.034-.069-2.413-.069-3.998s.069-2.895.069-3.929c.069-1.034.138-1.93.276-2.62a6.6 6.6 0 0 1 .552-1.654c.207-.414.483-.827.758-1.172.552-.483 1.172-.965 1.861-1.241.758-.345 1.585-.482 2.551-.482.896 0 1.723.138 2.481.482.69.276 1.31.759 1.792 1.241a4.5 4.5 0 0 1 .827 1.172c.207.414.344.965.482 1.654s.276 1.585.345 2.62c0 1.034.069 2.344.069 3.929s-.069 2.964-.069 3.998m34.605-20.68v20.473l-13.649-20.473h-6.066v33.364h6.755v-20.473l13.718 20.473h5.997v-33.364z"/><path style="fill:#f1f1f1" d="M134.767 430.081c0-1.172-.069-2.206-.207-3.171s-.345-1.792-.69-2.62a7.3 7.3 0 0 0-1.241-2.275q-1.862-2.481-4.343-3.722c-1.654-.758-3.722-1.172-6.066-1.172h-12.477v33.364h12.477c2.344 0 4.412-.345 6.066-1.172 1.654-.758 3.102-1.999 4.343-3.654q.828-1.137 1.241-2.275c.345-.827.552-1.723.69-2.62.138-.965.207-1.999.207-3.171.069-1.172.069-2.413.069-3.791 0-1.377 0-2.618-.069-3.721m-6.756 7.17c0 .896-.069 1.723-.138 2.413a21 21 0 0 1-.414 1.723c-.207.414-.483.896-.758 1.241-1.172 1.379-2.826 2.068-5.032 2.068h-5.17v-21.715h5.17c2.206 0 3.86.689 5.032 2.068.276.345.552.758.758 1.241.138.483.276 1.034.414 1.723.069.621.138 1.448.138 2.413.069.965.069 2.068.069 3.378s0 2.481-.069 3.447m37.707-14.27v-5.859H142.97v33.364h22.748v-5.79h-16.061v-8.135h13.649v-5.79h-13.649v-7.79zm32.468-5.859-9.03 18.061-9.03-18.061h-6.618v33.364h6.756v-19.44l6.617 12.684h4.55l6.617-12.684v19.44h6.756v-33.364zm40.189 12.408a27 27 0 0 0-.414-3.585c-.276-1.034-.621-2.068-1.034-2.964-.483-.896-1.172-1.792-2.068-2.62-1.172-1.103-2.482-1.999-3.929-2.551-1.517-.621-3.24-.965-5.239-.965s-3.791.344-5.308.965c-1.516.552-2.826 1.448-3.998 2.551-.827.827-1.517 1.723-1.999 2.62s-.827 1.93-1.034 2.964a19 19 0 0 0-.345 3.585c-.069 1.241-.069 2.689-.069 4.274s0 3.033.069 4.343c0 1.241.138 2.412.345 3.516a10 10 0 0 0 1.034 2.964c.483.896 1.172 1.792 1.999 2.62 1.172 1.172 2.481 1.999 3.998 2.62 1.517.62 3.309.896 5.308.896s3.722-.276 5.239-.896c1.448-.621 2.758-1.448 3.929-2.62.896-.827 1.585-1.723 2.068-2.62.414-.896.758-1.861 1.034-2.964q.31-1.654.414-3.516c0-1.31.069-2.758.069-4.343s-.069-3.033-.069-4.274m-6.756 8.272a19 19 0 0 1-.345 2.551c-.138.689-.275 1.241-.482 1.654a4.6 4.6 0 0 1-.827 1.172 7.1 7.1 0 0 1-1.792 1.31c-.758.345-1.585.483-2.481.483-.965 0-1.792-.138-2.551-.483-.689-.345-1.31-.827-1.861-1.31a6.8 6.8 0 0 1-.758-1.172 6.6 6.6 0 0 1-.552-1.654c-.138-.69-.207-1.517-.276-2.551 0-1.034-.069-2.413-.069-3.998s.069-2.895.069-3.929c.069-1.034.138-1.93.276-2.62a6.6 6.6 0 0 1 .552-1.654c.207-.414.483-.827.758-1.172.552-.483 1.172-.965 1.861-1.241.758-.345 1.585-.482 2.551-.482.896 0 1.723.138 2.481.482.69.276 1.31.759 1.792 1.241a4.5 4.5 0 0 1 .827 1.172c.207.414.344.965.482 1.654s.276 1.585.345 2.62c0 1.034.069 2.344.069 3.929s-.069 2.964-.069 3.998m34.605-20.68v20.473l-13.649-20.473h-6.066v33.364h6.755v-20.473l13.718 20.473h5.997v-33.364z"/></g><path style="opacity:.2;fill:#040000" d="M293.506 228.559c0 2.963-.127 5.901-.38 8.796-4.466-52.229-48.405-93.357-101.765-93.357s-97.299 41.128-101.765 93.357c-.253-2.896-.38-5.833-.38-8.796 0-56.323 45.822-102.145 102.144-102.145 56.325 0 102.146 45.822 102.146 102.145"/><path style="opacity:.1;fill:#040000" d="M347.085 512c14.702 0 27.403-9.026 32.834-21.809.303-.713.441-1.5.698-2.235.511-1.462 1.07-2.904 1.388-4.445.143-.692.116-1.436.218-2.141.238-1.654.51-3.3.51-5.017V35.657c0-4.902-1.003-9.581-2.813-13.842-1.433-3.373-3.493-6.381-5.841-9.134-2.102-2.464-4.411-4.743-7.099-6.562-.361-.244-.782-.396-1.153-.628C360.361 2.075 353.971.01 347.086.01H191.362V512z"/></svg>